<svg width="760" height="520" viewBox="0 0 760 520" fill="none" xmlns="http://www.w3.org/2000/svg" role="img" aria-label="Ilustração de estudos em enfermagem">
  <defs>
    <linearGradient id="blob" x1="110" y1="60" x2="640" y2="480" gradientUnits="userSpaceOnUse">
      <stop stop-color="#E31B1B"/>
      <stop offset="1" stop-color="#B30D0D"/>
    </linearGradient>
    <filter id="shadow" x="-20%" y="-20%" width="140%" height="140%">
      <feDropShadow dx="0" dy="16" stdDeviation="18" flood-color="#000000" flood-opacity="0.22"/>
    </filter>
    <linearGradient id="book" x1="0" y1="0" x2="0" y2="1">
      <stop stop-color="#FFFFFF"/>
      <stop offset="1" stop-color="#F3F4F6"/>
    </linearGradient>
  </defs>

  <path filter="url(#shadow)" d="M491 56c87 37 144 123 135 212-9 90-74 165-146 219-73 54-154 85-227 62-73-23-140-99-158-188-18-90 14-193 87-255 73-62 222-87 309-50z" fill="url(#blob)"/>

  <!-- dotted accents -->
  <g opacity="0.18">
    <circle cx="126" cy="176" r="3" fill="#E31B1B"/>
    <circle cx="146" cy="156" r="3" fill="#E31B1B"/>
    <circle cx="166" cy="176" r="3" fill="#E31B1B"/>
    <circle cx="186" cy="156" r="3" fill="#E31B1B"/>
    <circle cx="206" cy="176" r="3" fill="#E31B1B"/>
    <circle cx="226" cy="156" r="3" fill="#E31B1B"/>
  </g>

  <!-- books -->
  <g filter="url(#shadow)">
    <rect x="314" y="302" width="270" height="56" rx="14" fill="url(#book)"/>
    <rect x="330" y="318" width="238" height="8" rx="4" fill="#E31B1B" opacity="0.38"/>
    <rect x="314" y="234" width="270" height="56" rx="14" fill="url(#book)"/>
    <rect x="330" y="250" width="238" height="8" rx="4" fill="#E31B1B" opacity="0.38"/>
    <rect x="314" y="166" width="270" height="56" rx="14" fill="url(#book)"/>
    <rect x="330" y="182" width="238" height="8" rx="4" fill="#E31B1B" opacity="0.38"/>
  </g>

  <!-- simple stethoscope -->
  <path d="M265 210c0 58 50 84 96 84h26c60 0 108 40 108 102v30" stroke="#1F2937" stroke-width="12" stroke-linecap="round"/>
  <path d="M265 210v-42" stroke="#1F2937" stroke-width="12" stroke-linecap="round"/>
  <path d="M313 210v-42" stroke="#1F2937" stroke-width="12" stroke-linecap="round"/>
  <circle cx="499" cy="435" r="24" fill="#FFFFFF"/>
  <circle cx="499" cy="435" r="14" fill="#E31B1B"/>

  <!-- heart badge -->
  <g filter="url(#shadow)">
    <circle cx="596" cy="172" r="58" fill="#FFFFFF" opacity="0.98"/>
    <path d="M596 206c-26-15-43-34-43-55 0-14 11-25 25-25 10 0 18 5 22 12 4-7 12-12 22-12 14 0 25 11 25 25 0 21-17 40-43 55z" fill="#E31B1B"/>
    <path d="M577 165h14l4-10 6 22 4-12h16" stroke="#FFFFFF" stroke-width="6" stroke-linecap="round" stroke-linejoin="round"/>
  </g>
</svg>

